# xmcd
#
# Track frame offsets:
#	150
#	13858
#	27886
#	41402
#	56104
#	81124
#	94859
#	108413
#	120350
#	132065
#	145773
#	162126
#	176532
#	190820
#	202088
#	233325
#	247475
#	263159
#	278447
#	293737
#
# Disc length: 4027
#
# Revision: 2
# Processed by: cddbd v1.5.1PL0 Copyright (c) Steve Scherf et al.
# Submitted via: CDex 1.50beta9
# Normalized: r0:DSETVAR1,TDELIM( - ),TSWAP
#
DISCID=110fb914
DTITLE=Various Artist - The Original Sisters of Soul
DYEAR=1900
DGENRE=Jazz
TTITLE0=Dinah Washington - Stairway to the Stars
TTITLE1=Dinah Washington - I Thought About You
TTITLE2=Dinah Washington - Mad About the Boy
TTITLE3=Dinah Washington - Am I Blue
TTITLE4=Dinah Washington - Make The Man Love Me
TTITLE5=Ella Fitzgerald - Sing, Song, Swing
TTITLE6=Ella Fitzgerald - It's Wonderful
TTITLE7=Ella Fitzgerald - A-Tisket, A-Tasket
TTITLE8=Ella Fitzgerald - Sing Me a Swing Song (and Let Me Dance)
TTITLE9=Ella Fitzgerald - My Melancholy Baby
TTITLE10=Nina Simone - My Baby Just Cares For Me
TTITLE11=Nina Simone - Don't Smoke in Bed
TTITLE12=Nina Simone - He's Got the Whole World in His Hands
TTITLE13=Nina Simone - He Needs Me
TTITLE14=Nina Simone - The House of the Rising Sun
TTITLE15=Billie Holiday - I Wished on the Moon
TTITLE16=Billie Holiday - I Can't Give You Anything But Love
TTITLE17=Billie Holiday - Yesterday's
TTITLE18=Billie Holiday - Loverman
TTITLE19=Billie Holiday - Lover Come Back to Me
EXTD=
EXTT0=
EXTT1=
EXTT2=
EXTT3=
EXTT4=
EXTT5=
EXTT6=
EXTT7=
EXTT8=
EXTT9=
EXTT10=
EXTT11=
EXTT12=
EXTT13=
EXTT14=
EXTT15=
EXTT16=
EXTT17=
EXTT18=
EXTT19=
PLAYORDER=
